<svg width="88" height="88" viewBox="0 0 88 88" fill="none" xmlns="http://www.w3.org/2000/svg">
<path d="M33.4737 4V12.4211M50.3158 4V12.4211M58.7368 29.2632C59.8535 29.2632 60.9245 29.7068 61.7141 30.4964C62.5038 31.286 62.9474 32.357 62.9474 33.4737V67.1579C62.9474 71.6247 61.1729 75.9086 58.0144 79.0671C54.8559 82.2256 50.5721 84 46.1053 84H20.8421C16.3753 84 12.0914 82.2256 8.93294 79.0671C5.77443 75.9086 4 71.6247 4 67.1579V33.4737C4 32.357 4.44361 31.286 5.23323 30.4964C6.02286 29.7068 7.09383 29.2632 8.21053 29.2632H67.1579C71.6247 29.2632 75.9086 31.0376 79.0671 34.1961C82.2256 37.3546 84 41.6385 84 46.1053C84 50.5721 82.2256 54.8559 79.0671 58.0144C75.9086 61.1729 71.6247 62.9474 67.1579 62.9474H62.9474M16.6316 4V12.4211" stroke="black" stroke-width="8" stroke-linecap="round" stroke-linejoin="round"/>
</svg>
